HIERARCHY
ROOT hip
{
	OFFSET 0.000000 0.000000 0.000000 
	CHANNELS 6 Xposition Yposition Zposition Xrotation Zrotation Yrotation
	JOINT abdomen
	{
		OFFSET 0.000000 3.402643 0.000000 
		CHANNELS 3 Xrotation Zrotation Yrotation
		JOINT chest
		{
			OFFSET 0.000000 8.438565 -0.680529 
			CHANNELS 3 Xrotation Zrotation Yrotation
			JOINT neck
			{
				OFFSET 0.000000 10.207942 -0.272212 
				CHANNELS 3 Xrotation Zrotation Yrotation
				JOINT head
				{
					OFFSET 0.000000 3.130431 0.000000 
					CHANNELS 3 Xrotation Zrotation Yrotation
					End Site
					{
						OFFSET 0.000000 3.130435 0.000000 
					}
				}
			}
			JOINT lCollar
			{
				OFFSET 3.470700 6.669187 -0.816635 
				CHANNELS 3 Yrotation Zrotation Xrotation
				JOINT lShldr
				{
					OFFSET 3.198488 0.000000 0.000000 
					CHANNELS 3 Zrotation Yrotation Xrotation
					JOINT lForeArm
					{
						OFFSET 10.139888 0.000000 0.000000 
						CHANNELS 3 Yrotation Zrotation Xrotation
						JOINT lHand
						{
							OFFSET 8.370511 0.000000 0.000000 
							CHANNELS 3 Zrotation Yrotation Xrotation
							End Site
							{
								OFFSET 4.083176 0.000000 0.000000 
							}
						}
					}
				}
			}
			JOINT rCollar
			{
				OFFSET -3.470700 6.669187 -0.816635 
				CHANNELS 3 Yrotation Zrotation Xrotation
				JOINT rShldr
				{
					OFFSET -3.198488 0.000000 0.000000 
					CHANNELS 3 Zrotation Yrotation Xrotation
					JOINT rForeArm
					{
						OFFSET -10.139888 0.000000 0.000000 
						CHANNELS 3 Yrotation Zrotation Xrotation
						JOINT rHand
						{
							OFFSET -8.370511 0.000000 0.000000 
							CHANNELS 3 Zrotation Yrotation Xrotation
							End Site
							{
								OFFSET -4.083176 0.000000 0.000000 
							}
						}
					}
				}
			}
		}
	}
	JOINT lThigh
	{
		OFFSET 5.308129 -1.633274 1.361059 
		CHANNELS 3 Xrotation Zrotation Yrotation
		JOINT lShin
		{
			OFFSET -2.041588 -20.007561 0.000000 
			CHANNELS 3 Xrotation Zrotation Yrotation
			JOINT lFoot
			{
				OFFSET 0.000000 -19.190928 -1.224953 
				CHANNELS 3 Xrotation Yrotation Zrotation
				End Site
				{
					OFFSET 0.000000 -2.449906 4.627600 
				}
			}
		}
	}
	JOINT rThigh
	{
		OFFSET -5.308129 -1.633274 1.361059 
		CHANNELS 3 Xrotation Zrotation Yrotation
		JOINT rShin
		{
			OFFSET 2.041588 -20.007561 0.000000 
			CHANNELS 3 Xrotation Zrotation Yrotation
			JOINT rFoot
			{
				OFFSET 0.000000 -19.190928 -1.224953 
				CHANNELS 3 Xrotation Yrotation Zrotation
				End Site
				{
					OFFSET 0.000000 -2.449906 4.627600 
				}
			}
		}
	}
}
MOTION
Frames: 6
Frame Time: 0.011111
48.089466 58.755363 16.047018 2.656643 2.496583 13.187123 28.658522 -4.256912 -1.016058 -22.133572 0.607216 0.325319 -24.364208 9.211427 3.717298 23.573568 -23.135042 7.752064 3.020945 -4.671623 1.932447 -67.165199 -22.303438 25.142805 -81.381378 5.763581 23.367933 8.524705 12.647240 -30.735731 -4.079493 7.469375 2.114597 66.488327 7.404032 13.204969 47.843422 -7.184619 7.311886 -8.534408 -12.637552 40.540871 -15.428309 11.014731 -2.885673 94.069725 1.785891 -9.784167 9.493632 -25.842667 -0.950050 -26.336742 -8.905911 -6.500350 42.115028 4.482146 6.318807 0.073009 -20.989046 3.726655 
48.041313 58.485832 16.287470 2.986449 2.206428 12.622622 29.038099 -3.694028 -0.660589 -22.211958 0.373957 0.350864 -24.844620 8.930336 4.039879 23.521685 -22.608082 8.473092 3.020945 -4.671623 1.932447 -67.743111 -23.119944 24.498392 -80.410072 6.284722 22.725355 8.524705 12.647240 -30.638073 -4.079493 7.469375 2.114597 66.349640 8.338076 13.915926 48.009418 -7.227399 7.377752 -8.534408 -12.637552 39.876812 -16.043156 11.258598 -2.959122 94.963615 1.911878 -9.795812 10.841226 -25.200653 -0.337905 -27.877588 -8.455769 -5.868017 44.255547 4.296807 6.569865 0.078199 -20.989021 3.729284 
48.000038 58.194099 16.485708 3.477087 1.991486 12.292459 29.200005 -3.199658 -0.471533 -22.534510 0.141352 0.347162 -24.610289 8.670106 4.393838 23.120407 -22.131695 9.154712 3.020945 -4.671623 1.932447 -68.086617 -23.346069 24.243593 -79.536781 6.696872 22.182274 8.524705 12.647240 -30.354870 -4.079493 7.469375 2.114597 66.211372 8.802952 15.015843 48.455280 -7.336015 7.549008 -8.534408 -12.637552 39.749859 -16.855867 11.303051 -3.181254 95.964523 2.068844 -9.786263 11.918994 -24.540852 0.149925 -29.382288 -8.182766 -5.448081 46.274479 4.130599 6.784065 0.078319 -20.976446 3.723647 
47.961891 57.953342 16.719904 3.942235 2.260755 11.922352 29.428713 -3.348370 -0.528615 -22.573473 0.219664 0.344290 -24.307495 8.826656 4.592635 22.387547 -22.378145 9.675569 3.020945 -4.671623 1.932447 -68.538200 -23.872314 24.040861 -78.482437 7.141761 21.556576 8.524705 12.647240 -30.286514 -4.079493 7.469375 2.114597 65.943962 9.478181 16.481264 49.194565 -7.519681 7.836451 -8.534408 -12.637552 40.179546 -17.419415 10.711555 -3.286242 96.848953 2.194924 -9.789446 12.565667 -23.635334 0.409372 -30.789322 -8.369020 -4.892562 48.114483 3.972033 6.962252 0.076851 -20.985571 3.716835 
47.912174 57.807320 17.003506 4.371847 2.751365 11.532780 29.689852 -3.761367 -0.851896 -22.455860 0.598948 0.312465 -23.836432 9.234338 4.662175 21.108202 -23.256348 10.003476 3.020945 -4.671623 1.932447 -69.091087 -24.454538 23.880350 -77.342865 7.557690 20.899969 8.524705 12.647240 -30.442760 -4.079493 7.469375 2.114597 65.518837 10.394114 17.796776 49.986217 -7.701554 8.150843 -8.534408 -12.637552 40.433453 -18.026009 9.852735 -3.282267 97.636772 2.293583 -9.788491 12.811108 -22.672413 0.464273 -32.078472 -8.720601 -4.229254 49.647152 3.818251 7.151527 0.075586 -20.989054 3.726115 
47.875591 57.690693 17.258339 4.789569 3.058281 11.330613 29.904543 -3.853118 -1.162332 -22.465408 0.840696 0.235825 -23.444963 9.651279 4.579829 20.313145 -24.162275 9.976602 3.020945 -4.671623 1.932447 -69.418350 -24.778502 24.093800 -76.193237 7.925542 20.271570 8.524705 12.647240 -30.686903 -4.079493 7.469375 2.114597 65.200233 11.276420 18.646809 50.718456 -7.871432 8.457041 -8.534408 -12.637552 40.306499 -18.409971 9.185895 -3.445085 98.287231 2.409858 -9.787885 13.666127 -21.321161 0.728679 -33.056026 -8.925664 -3.769123 50.717827 3.710989 7.261778 0.076830 -20.985586 3.716743 
